<svg xmlns="http://www.w3.org/2000/svg" viewBox="0 0 22.15 40.01"><defs><style>.cls-1,.cls-2{fill:none;stroke-miterlimit:10;stroke-width:0.8px;}.cls-1{stroke:#1b211a;}.cls-2{stroke:#fa0;}.cls-3{fill:#1b211a;}.cls-4{fill:#fa0;}.cls-5{fill:#f03;}</style></defs><g id="Layer_2" data-name="Layer 2"><g id="mekanik"><g id="semaphore_distant" data-name="semaphore distant"><polyline class="cls-1" points="9.05 5.63 7.03 8.7 9.05 11.62 7.03 14.54 9.05 16.98 7.03 19.39"/><line class="cls-1" x1="7.03" y1="35.38" x2="9.05" y2="39.63"/><polyline class="cls-2" points="9.05 20.05 7.03 23.13 9.05 26.05 7.03 28.97 9.05 31.41 7.03 33.82"/><path class="cls-3" d="M8.6,5.44V19.23H7.36V5.44H8.6m.79-.8H6.57V20H9.39V4.64Z"/><path class="cls-3" d="M8.6,35.36v3.85H7.36V35.36H8.6m.79-.8H6.57V40H9.39V34.56Z"/><path class="cls-4" d="M8.6,20.4V34.19H7.36V20.4H8.6m.79-.8H6.57V35H9.39V19.6Z"/><rect class="cls-3" x="6.56" y="6.67" width="2.81" height="1.91"/><rect class="cls-5" x="12.13" y="3.11" width="3" height="18.95" transform="translate(-4.58 16.1) rotate(-53.63)"/><path class="cls-4" d="M1.44,7.54a1.48,1.48,0,1,0,2-.4A1.46,1.46,0,0,0,1.44,7.54Zm-1-.25,1.92-3,4,2.93L4.41,10a2.4,2.4,0,0,1-3.33.68h0A2.42,2.42,0,0,1,.4,7.29Z"/><path class="cls-4" d="M5.88,3.87A1.47,1.47,0,1,0,5.66,1.8,1.47,1.47,0,0,0,5.88,3.87ZM8.5.54h0a2.41,2.41,0,0,1,.35,3.39L6.29,7.17l-4-2.93L5.12.89A2.4,2.4,0,0,1,8.5.54Z"/></g></g></g></svg>