<svg xmlns="http://www.w3.org/2000/svg" viewBox="0 0 20 11"><defs><style>.cls-1{fill:#1b211a;}.cls-2{fill:#fff;}</style></defs><g id="Layer_2" data-name="Layer 2"><g id="center"><g id="_8k" data-name="8k"><rect class="cls-1" width="20" height="11"/><path class="cls-2" d="M1.65,6.66l1.19-.11a1.49,1.49,0,0,0,.43.88,1.32,1.32,0,0,0,.89.28,1.33,1.33,0,0,0,.89-.25.75.75,0,0,0,.3-.59.56.56,0,0,0-.12-.36,1.07,1.07,0,0,0-.44-.26c-.15,0-.47-.14-1-.27a3.31,3.31,0,0,1-1.39-.6,1.57,1.57,0,0,1-.55-1.22,1.5,1.5,0,0,1,.26-.86,1.62,1.62,0,0,1,.76-.62,3,3,0,0,1,1.19-.21A2.6,2.6,0,0,1,5.8,3a1.79,1.79,0,0,1,.6,1.34l-1.22.05a1,1,0,0,0-.34-.67,1.2,1.2,0,0,0-.77-.21,1.45,1.45,0,0,0-.84.22A.45.45,0,0,0,3,4.08a.47.47,0,0,0,.18.37,3.2,3.2,0,0,0,1.12.4,5.7,5.7,0,0,1,1.32.44,1.61,1.61,0,0,1,.67.62,1.8,1.8,0,0,1,.25,1,1.83,1.83,0,0,1-.29,1,1.81,1.81,0,0,1-.82.67,3.44,3.44,0,0,1-1.32.22,2.6,2.6,0,0,1-1.77-.53A2.3,2.3,0,0,1,1.65,6.66Z"/><path class="cls-2" d="M7.6,8.64V7.47H8.76V8.64Z"/><path class="cls-2" d="M9.66,7l1.12-.14a1.12,1.12,0,0,0,.29.66.81.81,0,0,0,.57.23.8.8,0,0,0,.61-.28,1.06,1.06,0,0,0,.25-.73,1,1,0,0,0-.24-.7.75.75,0,0,0-.57-.25,2.43,2.43,0,0,0-.54.08L11.28,5A1,1,0,0,0,12,4.75a.74.74,0,0,0,.25-.57.66.66,0,0,0-.18-.49.75.75,0,0,0-1,0,1,1,0,0,0-.25.61L9.75,4.13a2.26,2.26,0,0,1,.33-.87,1.48,1.48,0,0,1,.63-.52,2,2,0,0,1,.9-.19A1.79,1.79,0,0,1,13,3.1a1.41,1.41,0,0,1,.42,1,1.43,1.43,0,0,1-.87,1.28,1.35,1.35,0,0,1,.83.5,1.45,1.45,0,0,1,.32.94,1.83,1.83,0,0,1-.59,1.36,2,2,0,0,1-1.45.56,2,2,0,0,1-1.36-.47A1.89,1.89,0,0,1,9.66,7Z"/><path class="cls-2" d="M14.43,7.08,15.58,7a1,1,0,0,0,.3.62.8.8,0,0,0,.56.23.79.79,0,0,0,.62-.3,1.37,1.37,0,0,0,.25-.89,1.23,1.23,0,0,0-.25-.83.83.83,0,0,0-.65-.28,1.15,1.15,0,0,0-.9.44l-.94-.14.59-3.15h3.07V3.75H16l-.18,1a1.79,1.79,0,0,1,2.1.37A2,2,0,0,1,18.5,6.6a2.19,2.19,0,0,1-.43,1.34,1.94,1.94,0,0,1-1.64.8,2,2,0,0,1-1.37-.45A1.84,1.84,0,0,1,14.43,7.08Z"/></g></g></g></svg>