<svg xmlns="http://www.w3.org/2000/svg" viewBox="0 0 30.45 40.09"><defs><style>.cls-1,.cls-2{fill:none;stroke-miterlimit:10;stroke-width:0.8px;}.cls-1{stroke:#1b211a;}.cls-2{stroke:#fa0;}.cls-3{fill:#1b211a;}.cls-4{fill:#fa0;}.cls-5{fill:#f03;}</style></defs><g id="Layer_2" data-name="Layer 2"><g id="mekanik"><g id="semaphore_double_arms" data-name="semaphore double arms"><polyline class="cls-1" points="11.38 0.98 9.36 4.06 11.38 6.98 9.36 9.89 11.38 12.34 9.36 14.74"/><polyline class="cls-1" points="9.36 29.73 11.38 32.07 9.36 34.99 11.38 37.43 9.36 39.84"/><polyline class="cls-2" points="11.38 15.41 9.36 18.49 11.38 21.41 9.36 24.32 11.38 26.77 9.36 29.17"/><path class="cls-3" d="M10.93.8V14.59H9.69V.8h1.24m.79-.8H8.9V15.38h2.82V0Z"/><path class="cls-3" d="M10.93,30.72V39.2H9.69V30.72h1.24m.79-.8H8.9V40h2.82V29.92Z"/><path class="cls-4" d="M10.93,15.76V29.55H9.69V15.76h1.24m.79-.8H8.9V30.34h2.82V15Z"/><path class="cls-4" d="M14.48,25.41a1.1,1.1,0,0,0-1.47.53,1.11,1.11,0,0,0,2,.93A1.1,1.1,0,0,0,14.48,25.41ZM13.2,28.32h0a1.81,1.81,0,0,1-.88-2.4l1-2.21,4,0-1.7,3.69A1.8,1.8,0,0,1,13.2,28.32Z"/><rect class="cls-5" x="8.49" y="5.16" width="18.09" height="3"/><circle class="cls-5" cx="27.35" cy="6.66" r="3.1"/><rect class="cls-5" x="8.55" y="21.07" width="18.03" height="3"/><circle class="cls-5" cx="27.35" cy="22.57" r="3.1"/><path class="cls-4" d="M8.49,8.17H0V6.38A6.38,6.38,0,0,1,6.38,0H8.49ZM5.73,1.11a1.49,1.49,0,1,0,0,3,1.49,1.49,0,0,0,0-3Zm-3,3A1.49,1.49,0,1,0,4.24,5.57,1.49,1.49,0,0,0,2.76,4.08Z"/><rect class="cls-4" x="4.51" y="22.28" width="3.98" height="0.53"/><circle class="cls-4" cx="5.09" cy="22.55" r="1.01"/><rect class="cls-3" x="8.89" y="0.03" width="2.81" height="1.91"/></g></g></g></svg>