<svg xmlns="http://www.w3.org/2000/svg" viewBox="0 0 15.72 20"><defs><style>.cls-1{fill:#1b211a;}.cls-2{fill:#fff;}.cls-3{fill:#666;}</style></defs><g id="Layer_2" data-name="Layer 2"><g id="top"><g id="speed_limit_sign_route" data-name="speed limit sign + route"><rect class="cls-1" x="5.07" y="13.26" width="5.59" height="5.59" transform="translate(13.65 -0.86) rotate(45)"/><rect class="cls-1" x="2.3" y="2.3" width="11.12" height="11.12" transform="translate(7.86 -3.26) rotate(45)"/><path class="cls-2" d="M6.35,17.08,6.93,17a1.35,1.35,0,0,0,.34.72.84.84,0,0,0,.58.21.94.94,0,0,0,.7-.28,1,1,0,0,0,.28-.7A.89.89,0,0,0,7.9,16a1.83,1.83,0,0,0-.41.06l.07-.51h.09a1.28,1.28,0,0,0,.67-.19.67.67,0,0,0,.3-.6.73.73,0,0,0-.22-.53.76.76,0,0,0-.56-.21.79.79,0,0,0-.56.21,1.09,1.09,0,0,0-.29.64l-.58-.1a1.52,1.52,0,0,1,.48-.91,1.41,1.41,0,0,1,.94-.32,1.55,1.55,0,0,1,.71.17,1.17,1.17,0,0,1,.67,1.06,1,1,0,0,1-.16.56,1.1,1.1,0,0,1-.49.4,1.07,1.07,0,0,1,.65.4,1.19,1.19,0,0,1,.23.76A1.38,1.38,0,0,1,9,18a1.57,1.57,0,0,1-1.14.43,1.46,1.46,0,0,1-1-.37A1.38,1.38,0,0,1,6.35,17.08Z"/><circle class="cls-2" cx="6.24" cy="5.74" r="0.54"/><circle class="cls-2" cx="5.12" cy="4.62" r="0.54"/><circle class="cls-2" cx="7.29" cy="6.85" r="0.54"/><circle class="cls-2" cx="8.46" cy="8.1" r="0.54"/><circle class="cls-2" cx="9.53" cy="9.17" r="0.54"/><circle class="cls-2" cx="10.6" cy="10.24" r="0.54"/><circle class="cls-3" cx="9.48" cy="5.74" r="0.54"/><circle class="cls-3" cx="10.6" cy="4.62" r="0.54"/><circle class="cls-3" cx="8.51" cy="6.85" r="0.54"/><circle class="cls-3" cx="7.26" cy="8.1" r="0.54"/><circle class="cls-3" cx="6.19" cy="9.17" r="0.54"/><circle class="cls-3" cx="5.12" cy="10.24" r="0.54"/></g></g></g></svg>