<svg xmlns="http://www.w3.org/2000/svg" viewBox="0 0 12.71 20.04"><defs><style>.cls-1{fill:#1b211a;}.cls-2{fill:#fff;}.cls-3{fill:#666;}</style></defs><g id="Layer_2" data-name="Layer 2"><g id="top"><g id="speed_limit_light_route" data-name="speed limit light + route"><rect class="cls-1" x="3.02" width="6.67" height="7.33"/><circle class="cls-2" cx="4.92" cy="1.96" r="0.5"/><circle class="cls-2" cx="3.89" cy="0.92" r="0.5"/><circle class="cls-2" cx="5.89" cy="2.99" r="0.5"/><circle class="cls-2" cx="6.97" cy="4.15" r="0.5"/><circle class="cls-2" cx="7.96" cy="5.14" r="0.5"/><circle class="cls-2" cx="8.95" cy="6.13" r="0.5"/><circle class="cls-3" cx="7.92" cy="1.96" r="0.5"/><circle class="cls-3" cx="8.95" cy="0.92" r="0.5"/><circle class="cls-3" cx="7.02" cy="2.99" r="0.5"/><circle class="cls-3" cx="5.87" cy="4.15" r="0.5"/><circle class="cls-3" cx="4.88" cy="5.14" r="0.5"/><circle class="cls-3" cx="3.89" cy="6.13" r="0.5"/><g id="speed_limit_light" data-name="speed limit light"><rect class="cls-1" x="1.86" y="9.19" width="8.98" height="8.98" transform="translate(11.54 -0.48) rotate(45)"/><circle class="cls-2" cx="6.1" cy="10.53" r="0.49"/><circle class="cls-2" cx="7.29" cy="10.53" r="0.49"/><circle class="cls-2" cx="8.27" cy="11.51" r="0.49"/><circle class="cls-2" cx="8.27" cy="12.74" r="0.49"/><circle class="cls-2" cx="8.27" cy="15.92" r="0.49"/><circle class="cls-2" cx="7.29" cy="13.71" r="0.49"/><circle class="cls-2" cx="6.1" cy="13.71" r="0.49"/><circle class="cls-2" cx="8.27" cy="14.69" r="0.49"/><circle class="cls-2" cx="4.87" cy="10.53" r="0.49"/><circle class="cls-2" cx="6.1" cy="16.9" r="0.49"/><circle class="cls-2" cx="7.29" cy="16.9" r="0.49"/><circle class="cls-2" cx="4.87" cy="16.9" r="0.49"/></g></g></g></g></svg>