<svg xmlns="http://www.w3.org/2000/svg" viewBox="0 0 19.98 19.98"><defs><style>.cls-1{fill:#1b211a;}.cls-2{fill:#fff;}</style></defs><g id="Layer_2" data-name="Layer 2"><g id="top"><g id="speed_limit_sign" data-name="speed limit sign"><rect class="cls-1" x="2.93" y="2.93" width="14.13" height="14.13" transform="translate(9.99 -4.14) rotate(45)"/><path class="cls-2" d="M6.16,12.6l1.47-.19a3.3,3.3,0,0,0,.86,1.8,2.17,2.17,0,0,0,1.48.55A2.38,2.38,0,0,0,11.72,14a2.4,2.4,0,0,0,.71-1.78,2.27,2.27,0,0,0-.66-1.67,2.31,2.31,0,0,0-1.68-.65,4.12,4.12,0,0,0-1,.16l.16-1.29.24,0a3.09,3.09,0,0,0,1.69-.49,1.68,1.68,0,0,0,.75-1.51,1.82,1.82,0,0,0-.55-1.34A2,2,0,0,0,9.94,5a2,2,0,0,0-1.43.54,2.72,2.72,0,0,0-.73,1.62L6.31,6.85A3.79,3.79,0,0,1,7.53,4.57a3.56,3.56,0,0,1,2.38-.81,3.91,3.91,0,0,1,1.8.42A3,3,0,0,1,13,5.32a3,3,0,0,1,.43,1.54A2.48,2.48,0,0,1,13,8.27a2.83,2.83,0,0,1-1.23,1,2.83,2.83,0,0,1,1.64,1A3,3,0,0,1,14,12.23a3.52,3.52,0,0,1-1.14,2.65A4,4,0,0,1,10,16,3.72,3.72,0,0,1,7.35,15,3.63,3.63,0,0,1,6.16,12.6Z"/></g></g></g></svg>