<svg xmlns="http://www.w3.org/2000/svg" viewBox="0 0 7.93 20"><defs><style>.cls-1{fill:#1b211a;}.cls-2{fill:#fff;}</style></defs><g id="Layer_2" data-name="Layer 2"><g id="top"><g id="speed_limit_sign_wrong_road" data-name="speed limit sign + wrong road"><rect class="cls-1" x="1.16" y="1.16" width="5.61" height="5.61" transform="translate(3.97 -1.64) rotate(45)"/><rect class="cls-1" x="0.63" y="7.93" width="6.67" height="12.07"/><path class="cls-2" d="M2.45,5,3,4.93a1.31,1.31,0,0,0,.34.71A.83.83,0,0,0,4,5.86a1,1,0,0,0,1-1A.92.92,0,0,0,4,3.94,1.85,1.85,0,0,0,3.6,4l.06-.51h.09a1.17,1.17,0,0,0,.67-.19.67.67,0,0,0,.3-.6.72.72,0,0,0-.21-.53A.79.79,0,0,0,4,2a.8.8,0,0,0-.57.21,1.09,1.09,0,0,0-.29.64l-.59-.1A1.59,1.59,0,0,1,3,1.81a1.43,1.43,0,0,1,.94-.32,1.59,1.59,0,0,1,.72.17,1.17,1.17,0,0,1,.67,1.06,1,1,0,0,1-.16.56,1.18,1.18,0,0,1-.49.41,1.07,1.07,0,0,1,.65.4,1.19,1.19,0,0,1,.23.76A1.41,1.41,0,0,1,5.1,5.91,1.57,1.57,0,0,1,4,6.34a1.47,1.47,0,0,1-1-.37A1.43,1.43,0,0,1,2.45,5Z"/><circle class="cls-2" cx="1.95" cy="8.91" r="0.58"/><circle class="cls-2" cx="1.95" cy="10.37" r="0.58"/><circle class="cls-2" cx="1.95" cy="11.75" r="0.58"/><circle class="cls-2" cx="2.83" cy="12.92" r="0.58"/><circle class="cls-2" cx="3.92" cy="13.84" r="0.58"/><circle class="cls-2" cx="5.01" cy="14.77" r="0.58"/><circle class="cls-2" cx="5.99" cy="16.04" r="0.58"/><circle class="cls-2" cx="5.99" cy="17.5" r="0.58"/><circle class="cls-2" cx="5.99" cy="18.96" r="0.58"/></g></g></g></svg>